<?xml version="1.0" encoding="utf-8"?>
<!-- Generator: Adobe Illustrator 27.0.0, SVG Export Plug-In . SVG Version: 6.00 Build 0)  -->
<svg version="1.1" id="Layer_1" xmlns="http://www.w3.org/2000/svg" xmlns:xlink="http://www.w3.org/1999/xlink" x="0px" y="0px"
	 viewBox="0 0 605 487" style="enable-background:new 0 0 605 487;" xml:space="preserve">
<style type="text/css">
	.st0{fill:#72BE44;}
	.st1{fill:#4A4A4C;}
	.st2{fill:#FFFFFF;}
	.st3{fill:#2E9D41;}
</style>
<g>
	<polygon class="st0" points="339.59,321.68 342.41,382.36 402.46,321.68 	"/>
	<polygon class="st0" points="168.64,291.44 238.58,291.44 174.07,345.66 155.3,345.66 	"/>
	<g>
		<g>
			<path class="st1" d="M155.26,427.05c-0.45-0.39-1-0.84-1.67-1.36c-0.67-0.52-1.43-1.01-2.28-1.48c-0.85-0.46-1.79-0.86-2.81-1.18
				c-1.02-0.33-2.12-0.49-3.28-0.49c-1.58,0-2.93,0.19-4.06,0.59c-1.13,0.39-2.06,0.9-2.8,1.54c-0.73,0.64-1.27,1.36-1.61,2.16
				c-0.34,0.8-0.52,1.6-0.52,2.39c0,0.95,0.29,1.77,0.88,2.46c0.58,0.69,1.34,1.3,2.28,1.81c0.94,0.51,1.99,0.95,3.17,1.32
				c1.18,0.37,2.37,0.72,3.58,1.06c1.09,0.3,2.22,0.61,3.38,0.95c1.16,0.33,2.29,0.71,3.38,1.13c1.1,0.42,2.12,0.9,3.09,1.46
				c0.96,0.56,1.81,1.21,2.53,1.98s1.29,1.64,1.71,2.63c0.42,0.99,0.63,2.14,0.63,3.44c0,1.99-0.4,3.78-1.21,5.37
				c-0.81,1.6-1.92,2.95-3.33,4.06c-1.41,1.11-3.06,1.97-4.95,2.57c-1.89,0.6-3.92,0.9-6.1,0.9c-1.45,0-2.86-0.15-4.26-0.45
				c-1.39-0.3-2.73-0.74-4.01-1.33c-1.28-0.59-2.48-1.33-3.6-2.21c-1.12-0.88-2.13-1.9-3.02-3.05c-0.3-0.39-0.44-0.72-0.44-1
				c0-0.32,0.17-0.61,0.5-0.89l1.78-1.48c0.13-0.09,0.27-0.17,0.43-0.22c0.16-0.06,0.3-0.08,0.43-0.08c0.13,0,0.26,0.04,0.38,0.11
				c0.12,0.07,0.24,0.16,0.35,0.26c0.11,0.1,0.21,0.2,0.31,0.29c0.09,0.09,0.16,0.16,0.2,0.19c0.81,0.85,1.73,1.6,2.74,2.24
				c1.01,0.64,2.02,1.18,3.03,1.61c1.01,0.44,1.98,0.77,2.92,0.99c0.94,0.22,1.74,0.33,2.41,0.33c0.78,0,1.58-0.07,2.41-0.21
				c0.83-0.14,1.63-0.35,2.42-0.64c0.79-0.29,1.53-0.65,2.24-1.09c0.7-0.44,1.32-0.95,1.85-1.53c0.53-0.58,0.95-1.25,1.25-1.99
				c0.31-0.74,0.46-1.56,0.46-2.45c0-1.13-0.31-2.09-0.93-2.87c-0.62-0.78-1.46-1.44-2.5-1.99c-1.05-0.55-2.25-1.02-3.6-1.41
				c-1.36-0.39-2.76-0.77-4.2-1.14c-2.28-0.59-4.28-1.23-6-1.92c-1.72-0.69-3.14-1.47-4.29-2.35c-1.14-0.88-2-1.87-2.56-2.96
				c-0.57-1.09-0.85-2.35-0.85-3.76c0-1.69,0.34-3.24,1.02-4.65c0.68-1.41,1.64-2.62,2.88-3.64c1.24-1.02,2.74-1.81,4.51-2.37
				c1.76-0.56,3.73-0.83,5.9-0.83c1.11,0,2.25,0.13,3.42,0.39c1.17,0.26,2.3,0.62,3.39,1.1c1.1,0.47,2.14,1.03,3.14,1.67
				c1,0.64,1.89,1.35,2.67,2.13c0.24,0.24,0.48,0.5,0.72,0.78c0.24,0.28,0.36,0.54,0.36,0.78c0,0.28-0.15,0.57-0.44,0.86l-1.67,1.62
				c-0.26,0.26-0.51,0.39-0.75,0.39C155.96,427.61,155.63,427.42,155.26,427.05z"/>
			<path class="st1" d="M203.5,417.93c1.95,0,3.83,0.25,5.64,0.75c1.81,0.5,3.5,1.21,5.06,2.14c1.57,0.93,3,2.04,4.3,3.33
				c1.3,1.29,2.4,2.73,3.32,4.31c0.92,1.59,1.63,3.29,2.14,5.11c0.51,1.82,0.77,3.71,0.77,5.68c0,1.95-0.25,3.83-0.75,5.63
				c-0.5,1.81-1.21,3.5-2.14,5.07c-0.93,1.57-2.04,3-3.32,4.29c-1.29,1.29-2.72,2.39-4.3,3.31c-1.58,0.92-3.27,1.63-5.09,2.13
				c-1.82,0.5-3.71,0.75-5.68,0.75c-1.97,0-3.85-0.25-5.65-0.75c-1.8-0.5-3.49-1.21-5.07-2.14c-1.58-0.93-3.01-2.03-4.3-3.32
				c-1.29-1.29-2.39-2.72-3.31-4.29c-0.92-1.57-1.63-3.26-2.13-5.07c-0.5-1.81-0.75-3.7-0.75-5.66c0-1.95,0.25-3.83,0.75-5.63
				c0.5-1.81,1.21-3.5,2.14-5.08c0.93-1.58,2.04-3.01,3.33-4.31c1.29-1.3,2.72-2.41,4.3-3.33c1.58-0.92,3.27-1.63,5.08-2.14
				C199.65,418.18,201.54,417.93,203.5,417.93z M187.06,439.13c0,2.28,0.43,4.42,1.28,6.41c0.85,1.99,2.03,3.74,3.52,5.23
				c1.49,1.49,3.24,2.67,5.23,3.52c2,0.85,4.13,1.28,6.41,1.28c2.24,0,4.36-0.43,6.36-1.28c1.99-0.85,3.73-2.03,5.2-3.52
				c1.47-1.49,2.64-3.24,3.5-5.23c0.86-2,1.29-4.13,1.29-6.41c0-1.5-0.19-2.95-0.58-4.34c-0.39-1.39-0.94-2.69-1.66-3.91
				s-1.57-2.32-2.56-3.31c-0.99-0.99-2.1-1.84-3.31-2.56s-2.52-1.27-3.91-1.66c-1.39-0.39-2.84-0.58-4.34-0.58
				c-2.28,0-4.42,0.43-6.41,1.29c-1.99,0.86-3.74,2.03-5.23,3.5c-1.49,1.48-2.67,3.21-3.52,5.2
				C187.49,434.77,187.06,436.89,187.06,439.13z"/>
			<path class="st1" d="M273.32,455.05c0.33,0,0.62,0.11,0.86,0.33c0.24,0.22,0.36,0.54,0.36,0.95v2.25c0,0.33-0.11,0.62-0.33,0.86
				c-0.22,0.24-0.52,0.36-0.89,0.36h-23.65c-0.82,0-1.23-0.41-1.23-1.22v-38.87c0-0.33,0.11-0.62,0.33-0.86
				c0.22-0.24,0.54-0.36,0.95-0.36h2.31c0.35,0,0.64,0.11,0.88,0.32c0.23,0.21,0.35,0.52,0.35,0.9v35.34H273.32z"/>
			<path class="st1" d="M301.4,442.91c0,1.8,0.28,3.48,0.85,5.05s1.37,2.93,2.41,4.08c1.04,1.15,2.31,2.06,3.8,2.73s3.18,1,5.05,1
				c1.97,0,3.71-0.33,5.23-1c1.52-0.67,2.8-1.58,3.83-2.74c1.03-1.16,1.81-2.52,2.34-4.09c0.53-1.57,0.79-3.24,0.79-5.02v-23.21
				c0-0.33,0.12-0.62,0.38-0.86c0.25-0.24,0.56-0.36,0.93-0.36h2.12c0.35,0,0.68,0.11,0.97,0.33c0.3,0.22,0.45,0.52,0.45,0.89v23.76
				c0,2.56-0.45,4.88-1.33,6.97c-0.89,2.09-2.11,3.87-3.66,5.36c-1.55,1.48-3.36,2.63-5.43,3.45s-4.27,1.22-6.61,1.22
				c-2.34,0-4.54-0.45-6.6-1.33c-2.06-0.89-3.86-2.11-5.41-3.66c-1.55-1.55-2.77-3.35-3.66-5.41c-0.89-2.06-1.34-4.26-1.34-6.6
				v-23.76c0-0.28,0.11-0.55,0.32-0.82c0.21-0.27,0.5-0.4,0.85-0.4h2.42c0.28,0,0.57,0.12,0.86,0.36c0.3,0.24,0.45,0.53,0.45,0.86
				V442.91z"/>
			<path class="st1" d="M382.21,418.48c0.33,0,0.63,0.1,0.89,0.31c0.26,0.2,0.41,0.51,0.45,0.92v2.28c0,0.37-0.12,0.69-0.35,0.95
				c-0.23,0.26-0.56,0.39-0.99,0.39h-11.88v35.23c0,0.35-0.11,0.65-0.32,0.89c-0.21,0.24-0.53,0.36-0.96,0.36h-2.26
				c-0.37,0-0.68-0.12-0.92-0.35c-0.24-0.23-0.36-0.53-0.36-0.9v-35.23h-11.94c-0.37,0-0.67-0.11-0.9-0.32
				c-0.23-0.21-0.35-0.55-0.35-1.02v-2.28c0-0.37,0.12-0.67,0.35-0.89c0.23-0.22,0.53-0.33,0.9-0.33H382.21z"/>
			<path class="st1" d="M411.17,458.58c0,0.41-0.11,0.71-0.33,0.92c-0.22,0.2-0.53,0.31-0.92,0.31h-2.31
				c-0.83,0-1.25-0.41-1.25-1.22v-38.87c0-0.37,0.11-0.67,0.32-0.89c0.21-0.22,0.52-0.33,0.93-0.33h2.31c0.37,0,0.67,0.11,0.9,0.33
				c0.23,0.22,0.35,0.52,0.35,0.89V458.58z"/>
			<path class="st1" d="M456.11,417.93c1.95,0,3.83,0.25,5.64,0.75c1.81,0.5,3.5,1.21,5.06,2.14c1.57,0.93,3,2.04,4.3,3.33
				c1.3,1.29,2.4,2.73,3.32,4.31c0.92,1.59,1.63,3.29,2.14,5.11c0.51,1.82,0.77,3.71,0.77,5.68c0,1.95-0.25,3.83-0.75,5.63
				c-0.5,1.81-1.21,3.5-2.14,5.07c-0.93,1.57-2.04,3-3.32,4.29c-1.29,1.29-2.72,2.39-4.3,3.31c-1.58,0.92-3.27,1.63-5.09,2.13
				c-1.82,0.5-3.71,0.75-5.68,0.75c-1.97,0-3.85-0.25-5.65-0.75c-1.8-0.5-3.49-1.21-5.07-2.14c-1.58-0.93-3.01-2.03-4.3-3.32
				c-1.29-1.29-2.39-2.72-3.31-4.29c-0.92-1.57-1.63-3.26-2.13-5.07c-0.5-1.81-0.75-3.7-0.75-5.66c0-1.95,0.25-3.83,0.75-5.63
				c0.5-1.81,1.21-3.5,2.14-5.08c0.93-1.58,2.04-3.01,3.33-4.31c1.29-1.3,2.72-2.41,4.3-3.33c1.58-0.92,3.27-1.63,5.08-2.14
				C452.26,418.18,454.15,417.93,456.11,417.93z M439.67,439.13c0,2.28,0.43,4.42,1.28,6.41c0.85,1.99,2.03,3.74,3.52,5.23
				s3.24,2.67,5.23,3.52c2,0.85,4.13,1.28,6.41,1.28c2.24,0,4.36-0.43,6.36-1.28c1.99-0.85,3.73-2.03,5.2-3.52
				c1.47-1.49,2.64-3.24,3.5-5.23c0.86-2,1.29-4.13,1.29-6.41c0-1.5-0.19-2.95-0.58-4.34c-0.39-1.39-0.94-2.69-1.66-3.91
				s-1.57-2.32-2.56-3.31c-0.99-0.99-2.1-1.84-3.31-2.56c-1.21-0.71-2.52-1.27-3.91-1.66c-1.39-0.39-2.84-0.58-4.34-0.58
				c-2.28,0-4.42,0.43-6.41,1.29c-1.99,0.86-3.74,2.03-5.23,3.5s-2.67,3.21-3.52,5.2C440.09,434.77,439.67,436.89,439.67,439.13z"/>
			<path class="st1" d="M532.27,459.8c-0.41,0-0.75-0.18-1.03-0.53l-25.38-33.31v32.61c0,0.82-0.43,1.22-1.28,1.22h-2.31
				c-0.82,0-1.23-0.41-1.23-1.22v-38.82c0-0.37,0.11-0.68,0.33-0.92c0.22-0.24,0.52-0.36,0.89-0.36h3.09c0.43,0,0.78,0.19,1.06,0.56
				l24.99,32.53v-32c0.04-0.33,0.16-0.6,0.38-0.79c0.21-0.19,0.5-0.29,0.85-0.29h2.28c0.33,0,0.64,0.11,0.92,0.33
				c0.28,0.22,0.42,0.52,0.42,0.89v38.87c0,0.82-0.45,1.22-1.33,1.22H532.27z"/>
			<path class="st1" d="M585.17,427.05c-0.45-0.39-1-0.84-1.67-1.36c-0.67-0.52-1.43-1.01-2.28-1.48c-0.85-0.46-1.79-0.86-2.81-1.18
				c-1.02-0.33-2.12-0.49-3.28-0.49c-1.58,0-2.93,0.19-4.06,0.59c-1.13,0.39-2.06,0.9-2.8,1.54c-0.73,0.64-1.27,1.36-1.61,2.16
				c-0.34,0.8-0.52,1.6-0.52,2.39c0,0.95,0.29,1.77,0.88,2.46c0.58,0.69,1.34,1.3,2.28,1.81c0.94,0.51,1.99,0.95,3.17,1.32
				c1.18,0.37,2.37,0.72,3.58,1.06c1.09,0.3,2.22,0.61,3.38,0.95c1.16,0.33,2.29,0.71,3.38,1.13c1.09,0.42,2.12,0.9,3.09,1.46
				c0.96,0.56,1.81,1.21,2.53,1.98c0.72,0.76,1.29,1.64,1.71,2.63c0.42,0.99,0.63,2.14,0.63,3.44c0,1.99-0.4,3.78-1.21,5.37
				c-0.81,1.6-1.92,2.95-3.33,4.06c-1.41,1.11-3.06,1.97-4.95,2.57c-1.89,0.6-3.92,0.9-6.1,0.9c-1.45,0-2.86-0.15-4.26-0.45
				c-1.39-0.3-2.73-0.74-4.01-1.33c-1.28-0.59-2.48-1.33-3.6-2.21c-1.12-0.88-2.13-1.9-3.02-3.05c-0.3-0.39-0.44-0.72-0.44-1
				c0-0.32,0.17-0.61,0.5-0.89l1.78-1.48c0.13-0.09,0.27-0.17,0.43-0.22c0.16-0.06,0.3-0.08,0.43-0.08c0.13,0,0.26,0.04,0.38,0.11
				c0.12,0.07,0.24,0.16,0.35,0.26c0.11,0.1,0.21,0.2,0.31,0.29c0.09,0.09,0.16,0.16,0.2,0.19c0.81,0.85,1.73,1.6,2.74,2.24
				c1.01,0.64,2.02,1.18,3.03,1.61c1.01,0.44,1.98,0.77,2.92,0.99c0.94,0.22,1.74,0.33,2.41,0.33c0.78,0,1.58-0.07,2.41-0.21
				c0.83-0.14,1.63-0.35,2.42-0.64c0.79-0.29,1.53-0.65,2.24-1.09c0.7-0.44,1.32-0.95,1.85-1.53c0.53-0.58,0.95-1.25,1.25-1.99
				c0.31-0.74,0.46-1.56,0.46-2.45c0-1.13-0.31-2.09-0.93-2.87c-0.62-0.78-1.46-1.44-2.5-1.99c-1.05-0.55-2.25-1.02-3.6-1.41
				c-1.36-0.39-2.76-0.77-4.2-1.14c-2.28-0.59-4.28-1.23-6-1.92c-1.72-0.69-3.14-1.47-4.29-2.35c-1.14-0.88-2-1.87-2.56-2.96
				c-0.57-1.09-0.85-2.35-0.85-3.76c0-1.69,0.34-3.24,1.02-4.65c0.68-1.41,1.64-2.62,2.88-3.64c1.24-1.02,2.74-1.81,4.51-2.37
				c1.76-0.56,3.73-0.83,5.9-0.83c1.11,0,2.25,0.13,3.42,0.39c1.17,0.26,2.3,0.62,3.39,1.1c1.1,0.47,2.14,1.03,3.14,1.67
				c1,0.64,1.89,1.35,2.67,2.13c0.24,0.24,0.48,0.5,0.72,0.78c0.24,0.28,0.36,0.54,0.36,0.78c0,0.28-0.15,0.57-0.44,0.86l-1.67,1.62
				c-0.26,0.26-0.51,0.39-0.75,0.39C585.88,427.61,585.54,427.42,585.17,427.05z"/>
		</g>
	</g>
	<path class="st2" d="M241.36,280.31l-1.01,0.92C240.82,281.01,241.17,280.71,241.36,280.31z"/>
	<polygon class="st3" points="547.97,202.59 496.95,202.59 496.95,391.69 523,391.69 547.97,391.45 	"/>
	<polygon class="st3" points="178.68,202.59 127.65,209.41 127.65,391.69 153.71,391.69 178.68,391.45 	"/>
	<polygon class="st3" points="291.7,313.68 291.7,202.59 240.68,202.59 240.68,391.69 263.97,391.69 	"/>
	<g>
		<path class="st3" d="M409.7,202.59h-51.02l-67.21,189.1h26.05l2.69-0.03c13.43-0.13,25.36-8.63,29.86-21.29L409.7,202.59z"/>
		<path class="st3" d="M359.68,202.59h51.02l67.21,189.1h-26.05l-2.69-0.03c-13.43-0.13-25.36-8.63-29.86-21.29L359.68,202.59z"/>
	</g>
	<polygon class="st3" points="496.98,247.98 456.29,247.98 440.19,202.59 496.98,202.59 	"/>
	<rect x="547.55" y="202.59" class="st3" width="47.52" height="45.39"/>
	<polygon class="st0" points="402.46,321.68 440.28,285.76 460.23,342.4 	"/>
	<polygon class="st0" points="547.55,247.98 595.07,202.59 595.07,247.98 	"/>
	<path class="st2" d="M118.64,252.23c0,0,39.37-35.14,83.41-46.49c12.01-30.69-58.72-16.24-60.72-16.24
		c-2,0-29.36,14.68-32.03,22.02C106.63,218.86,118.64,252.23,118.64,252.23z"/>
	<g>
		<g>
			<path class="st3" d="M98.83,206.68c11.97-8.5,25.54-17.32,40.58-26.25l7.65-59.45l29.64,38.74c9.5-4.93,19.39-9.84,29.76-14.7
				c6.72-2.93,13.07-5.52,19.07-7.81l-74.47-70.16L74.23,23l40.92,57.92L98.83,206.68z"/>
			<path class="st3" d="M164.17,184.09C66.41,234.8-99.15,376.45,93.91,296.96c-2.43,0.76-4.75,1.49-6.87,2.17
				c-74.95,24.18-49.38-17.52,103.92-103.72c119.12-62.42,198.7-64.71,108.48-0.78C441.63,105.42,307.95,101.19,164.17,184.09z"/>
			<polygon class="st0" points="142.01,84.86 126.48,192.27 187.28,153.53 			"/>
			<path class="st0" d="M162.4,175.82c51.56-29.73,101.82-48.25,138.53-55.67c-11.38-0.27-41.71,1.85-94.48,24.87
				c-90.21,42.28-148.3,88.64-166.48,115.21C73.49,230.84,123.36,196.08,162.4,175.82z"/>
		</g>
	</g>
</g>
</svg>
